<mxfile host="Electron" agent="Mozilla/5.0 (X11; Linux x86_64) AppleWebKit/537.36 (KHTML, like Gecko) draw.io/26.2.2 Chrome/134.0.6998.178 Electron/35.1.2 Safari/537.36" version="26.2.2">
  <diagram name="Page-1" id="l9JlZQkNLKE_KTfB_-UX">
    <mxGraphModel dx="3428" dy="1243" grid="1" gridSize="10" guides="1" tooltips="1" connect="1" arrows="1" fold="1" page="0" pageScale="1" pageWidth="1654" pageHeight="1169" background="#ffffff" math="0" shadow="0">
      <root>
        <mxCell id="0" />
        <mxCell id="1" parent="0" />
        <mxCell id="wPHAMOmzvQz0wvzDcsgE-16" value="ITEM" style="whiteSpace=wrap;html=1;align=center;labelBackgroundColor=none;" parent="1" vertex="1">
          <mxGeometry x="-530.0000000000001" y="439.06" width="100" height="40" as="geometry" />
        </mxCell>
        <mxCell id="wPHAMOmzvQz0wvzDcsgE-18" value="CATEGORY" style="whiteSpace=wrap;html=1;align=center;labelBackgroundColor=none;" parent="1" vertex="1">
          <mxGeometry x="-220" y="440" width="100" height="40" as="geometry" />
        </mxCell>
        <mxCell id="wPHAMOmzvQz0wvzDcsgE-19" value="CHAT" style="whiteSpace=wrap;html=1;align=center;labelBackgroundColor=none;" parent="1" vertex="1">
          <mxGeometry x="-1337.48" y="439.06000000000006" width="120" height="40" as="geometry" />
        </mxCell>
        <mxCell id="wPHAMOmzvQz0wvzDcsgE-49" value="address" style="ellipse;whiteSpace=wrap;html=1;align=center;labelBackgroundColor=none;" parent="1" vertex="1">
          <mxGeometry x="-1500" y="127.5" width="80" height="30" as="geometry" />
        </mxCell>
        <mxCell id="wPHAMOmzvQz0wvzDcsgE-50" value="gender" style="ellipse;whiteSpace=wrap;html=1;align=center;labelBackgroundColor=none;" parent="1" vertex="1">
          <mxGeometry x="-1130" y="807.13" width="90" height="30" as="geometry" />
        </mxCell>
        <mxCell id="wPHAMOmzvQz0wvzDcsgE-51" value="name" style="ellipse;whiteSpace=wrap;html=1;align=center;labelBackgroundColor=none;" parent="1" vertex="1">
          <mxGeometry x="-1040" y="732.5" width="90" height="25" as="geometry" />
        </mxCell>
        <mxCell id="wPHAMOmzvQz0wvzDcsgE-59" value="last_name" style="ellipse;whiteSpace=wrap;html=1;align=center;labelBackgroundColor=none;" parent="1" vertex="1">
          <mxGeometry x="-1140.0000000000002" y="767.13" width="77.67" height="30" as="geometry" />
        </mxCell>
        <mxCell id="wPHAMOmzvQz0wvzDcsgE-61" value="" style="endArrow=none;html=1;rounded=0;labelBackgroundColor=none;fontColor=default;" parent="1" source="zcDrhBrNaWHTgkZdKlLX-1" target="wPHAMOmzvQz0wvzDcsgE-50" edge="1">
          <mxGeometry relative="1" as="geometry">
            <mxPoint x="-637.1700000000001" y="867.13" as="sourcePoint" />
            <mxPoint x="-577.1700000000001" y="937.13" as="targetPoint" />
          </mxGeometry>
        </mxCell>
        <mxCell id="wPHAMOmzvQz0wvzDcsgE-62" value="" style="endArrow=none;html=1;rounded=0;labelBackgroundColor=none;fontColor=default;" parent="1" source="zcDrhBrNaWHTgkZdKlLX-2" target="wPHAMOmzvQz0wvzDcsgE-49" edge="1">
          <mxGeometry relative="1" as="geometry">
            <mxPoint x="-1350" y="-259.74" as="sourcePoint" />
            <mxPoint x="-730" y="610.26" as="targetPoint" />
          </mxGeometry>
        </mxCell>
        <mxCell id="wPHAMOmzvQz0wvzDcsgE-63" value="score" style="ellipse;whiteSpace=wrap;html=1;align=center;labelBackgroundColor=none;" parent="1" vertex="1">
          <mxGeometry x="-767.17" y="870" width="90" height="27.13" as="geometry" />
        </mxCell>
        <mxCell id="wPHAMOmzvQz0wvzDcsgE-64" value="" style="endArrow=none;html=1;rounded=0;labelBackgroundColor=none;fontColor=default;" parent="1" source="zcDrhBrNaWHTgkZdKlLX-1" target="wPHAMOmzvQz0wvzDcsgE-63" edge="1">
          <mxGeometry relative="1" as="geometry">
            <mxPoint x="-587.1700000000001" y="867.13" as="sourcePoint" />
            <mxPoint x="-647.1700000000001" y="737.13" as="targetPoint" />
            <Array as="points" />
          </mxGeometry>
        </mxCell>
        <mxCell id="wPHAMOmzvQz0wvzDcsgE-66" value="state" style="ellipse;whiteSpace=wrap;html=1;align=center;labelBackgroundColor=none;" parent="1" vertex="1">
          <mxGeometry x="-1605" y="130" width="70" height="20" as="geometry" />
        </mxCell>
        <mxCell id="wPHAMOmzvQz0wvzDcsgE-67" value="" style="endArrow=none;html=1;rounded=0;labelBackgroundColor=none;fontColor=default;" parent="1" source="wPHAMOmzvQz0wvzDcsgE-66" target="wPHAMOmzvQz0wvzDcsgE-49" edge="1">
          <mxGeometry relative="1" as="geometry">
            <mxPoint x="-890" y="520.26" as="sourcePoint" />
            <mxPoint x="-730" y="520.26" as="targetPoint" />
          </mxGeometry>
        </mxCell>
        <mxCell id="wPHAMOmzvQz0wvzDcsgE-68" value="street" style="ellipse;whiteSpace=wrap;html=1;align=center;labelBackgroundColor=none;" parent="1" vertex="1">
          <mxGeometry x="-1540" y="190" width="70" height="20" as="geometry" />
        </mxCell>
        <mxCell id="wPHAMOmzvQz0wvzDcsgE-70" value="" style="endArrow=none;html=1;rounded=0;labelBackgroundColor=none;fontColor=default;" parent="1" source="wPHAMOmzvQz0wvzDcsgE-68" target="wPHAMOmzvQz0wvzDcsgE-49" edge="1">
          <mxGeometry relative="1" as="geometry">
            <mxPoint x="-890" y="520.26" as="sourcePoint" />
            <mxPoint x="-730" y="520.26" as="targetPoint" />
            <Array as="points" />
          </mxGeometry>
        </mxCell>
        <mxCell id="wPHAMOmzvQz0wvzDcsgE-72" value="" style="endArrow=none;html=1;rounded=0;labelBackgroundColor=none;fontColor=default;" parent="1" source="wPHAMOmzvQz0wvzDcsgE-71" target="wPHAMOmzvQz0wvzDcsgE-49" edge="1">
          <mxGeometry relative="1" as="geometry">
            <mxPoint x="-1510.02" y="210" as="sourcePoint" />
            <mxPoint x="-730" y="520.26" as="targetPoint" />
          </mxGeometry>
        </mxCell>
        <mxCell id="wPHAMOmzvQz0wvzDcsgE-74" value="" style="endArrow=none;html=1;rounded=0;labelBackgroundColor=none;fontColor=default;" parent="1" source="zcDrhBrNaWHTgkZdKlLX-1" target="wPHAMOmzvQz0wvzDcsgE-80" edge="1">
          <mxGeometry relative="1" as="geometry">
            <mxPoint x="-597.1700000000001" y="857.13" as="sourcePoint" />
            <mxPoint x="-557.6500000000001" y="854.6550000000001" as="targetPoint" />
          </mxGeometry>
        </mxCell>
        <mxCell id="wPHAMOmzvQz0wvzDcsgE-75" value="" style="endArrow=none;html=1;rounded=0;labelBackgroundColor=none;fontColor=default;" parent="1" source="wPHAMOmzvQz0wvzDcsgE-59" target="wPHAMOmzvQz0wvzDcsgE-51" edge="1">
          <mxGeometry relative="1" as="geometry">
            <mxPoint x="-745.97" y="782.13" as="sourcePoint" />
            <mxPoint x="-585.97" y="782.13" as="targetPoint" />
          </mxGeometry>
        </mxCell>
        <mxCell id="wPHAMOmzvQz0wvzDcsgE-77" value="" style="endArrow=none;html=1;rounded=0;labelBackgroundColor=none;fontColor=default;" parent="1" source="wPHAMOmzvQz0wvzDcsgE-55" target="wPHAMOmzvQz0wvzDcsgE-51" edge="1">
          <mxGeometry relative="1" as="geometry">
            <mxPoint x="-990.97" y="902.13" as="sourcePoint" />
            <mxPoint x="-585.97" y="782.13" as="targetPoint" />
          </mxGeometry>
        </mxCell>
        <mxCell id="wPHAMOmzvQz0wvzDcsgE-78" value="" style="endArrow=none;html=1;rounded=0;labelBackgroundColor=none;fontColor=default;" parent="1" source="wPHAMOmzvQz0wvzDcsgE-51" target="zcDrhBrNaWHTgkZdKlLX-1" edge="1">
          <mxGeometry relative="1" as="geometry">
            <mxPoint x="-737.1700000000001" y="847.13" as="sourcePoint" />
            <mxPoint x="-687.1700000000001" y="857.13" as="targetPoint" />
          </mxGeometry>
        </mxCell>
        <mxCell id="wPHAMOmzvQz0wvzDcsgE-79" value="phone_num" style="ellipse;shape=doubleEllipse;margin=3;whiteSpace=wrap;html=1;align=center;labelBackgroundColor=none;" parent="1" vertex="1">
          <mxGeometry x="-730.0000000000001" y="837.13" width="90" height="30" as="geometry" />
        </mxCell>
        <mxCell id="wPHAMOmzvQz0wvzDcsgE-80" value="lender_id" style="ellipse;whiteSpace=wrap;html=1;align=center;fontStyle=4;labelBackgroundColor=none;" parent="1" vertex="1">
          <mxGeometry x="-712.8299999999999" y="797.13" width="90" height="30" as="geometry" />
        </mxCell>
        <mxCell id="wPHAMOmzvQz0wvzDcsgE-81" value="" style="endArrow=none;html=1;rounded=0;labelBackgroundColor=none;fontColor=default;" parent="1" source="zcDrhBrNaWHTgkZdKlLX-1" target="wPHAMOmzvQz0wvzDcsgE-79" edge="1">
          <mxGeometry relative="1" as="geometry">
            <mxPoint x="-587.1700000000001" y="847.13" as="sourcePoint" />
            <mxPoint x="-577.1700000000001" y="847.13" as="targetPoint" />
          </mxGeometry>
        </mxCell>
        <mxCell id="wPHAMOmzvQz0wvzDcsgE-84" value="email" style="ellipse;whiteSpace=wrap;html=1;align=center;labelBackgroundColor=none;" parent="1" vertex="1">
          <mxGeometry x="-710.0000000000001" y="727.5" width="90" height="30" as="geometry" />
        </mxCell>
        <mxCell id="wPHAMOmzvQz0wvzDcsgE-85" value="" style="endArrow=none;html=1;rounded=0;entryX=0;entryY=0.5;entryDx=0;entryDy=0;labelBackgroundColor=none;fontColor=default;" parent="1" source="zcDrhBrNaWHTgkZdKlLX-1" target="wPHAMOmzvQz0wvzDcsgE-84" edge="1">
          <mxGeometry relative="1" as="geometry">
            <mxPoint x="-587.1700000000001" y="837.13" as="sourcePoint" />
            <mxPoint x="-577.1700000000001" y="847.13" as="targetPoint" />
          </mxGeometry>
        </mxCell>
        <mxCell id="wPHAMOmzvQz0wvzDcsgE-86" value="password" style="ellipse;whiteSpace=wrap;html=1;align=center;labelBackgroundColor=none;" parent="1" vertex="1">
          <mxGeometry x="-710" y="760" width="87.17" height="30" as="geometry" />
        </mxCell>
        <mxCell id="wPHAMOmzvQz0wvzDcsgE-87" value="" style="endArrow=none;html=1;rounded=0;labelBackgroundColor=none;fontColor=default;" parent="1" source="zcDrhBrNaWHTgkZdKlLX-1" target="wPHAMOmzvQz0wvzDcsgE-86" edge="1">
          <mxGeometry relative="1" as="geometry">
            <mxPoint x="-587.1700000000001" y="837.13" as="sourcePoint" />
            <mxPoint x="-577.1700000000001" y="847.13" as="targetPoint" />
          </mxGeometry>
        </mxCell>
        <mxCell id="wPHAMOmzvQz0wvzDcsgE-96" value="owen" style="shape=rhombus;perimeter=rhombusPerimeter;whiteSpace=wrap;html=1;align=center;labelBackgroundColor=none;" parent="1" vertex="1">
          <mxGeometry x="-530" y="690" width="100" height="60" as="geometry" />
        </mxCell>
        <mxCell id="wPHAMOmzvQz0wvzDcsgE-97" value="" style="shape=link;html=1;rounded=0;entryX=0.5;entryY=1;entryDx=0;entryDy=0;labelBackgroundColor=none;fontColor=default;" parent="1" source="wPHAMOmzvQz0wvzDcsgE-96" target="wPHAMOmzvQz0wvzDcsgE-16" edge="1">
          <mxGeometry relative="1" as="geometry">
            <mxPoint x="-481.3" y="722.87" as="sourcePoint" />
            <mxPoint x="-596.3" y="552.87" as="targetPoint" />
          </mxGeometry>
        </mxCell>
        <mxCell id="wPHAMOmzvQz0wvzDcsgE-99" value="" style="endArrow=none;html=1;rounded=0;dashed=1;dashPattern=1 2;labelBackgroundColor=none;fontColor=default;" parent="1" source="wPHAMOmzvQz0wvzDcsgE-96" target="zcDrhBrNaWHTgkZdKlLX-1" edge="1">
          <mxGeometry relative="1" as="geometry">
            <mxPoint x="-1002.1700000000001" y="640" as="sourcePoint" />
            <mxPoint x="-985.1700000000001" y="933.76" as="targetPoint" />
            <Array as="points" />
          </mxGeometry>
        </mxCell>
        <mxCell id="wPHAMOmzvQz0wvzDcsgE-111" value="item_id" style="ellipse;whiteSpace=wrap;html=1;align=center;fontStyle=4;labelBackgroundColor=none;" parent="1" vertex="1">
          <mxGeometry x="-370" y="170.00000000000003" width="100" height="40" as="geometry" />
        </mxCell>
        <mxCell id="wPHAMOmzvQz0wvzDcsgE-113" value="item_image" style="ellipse;whiteSpace=wrap;html=1;align=center;labelBackgroundColor=none;" parent="1" vertex="1">
          <mxGeometry x="-420" y="127.5" width="100" height="40" as="geometry" />
        </mxCell>
        <mxCell id="wPHAMOmzvQz0wvzDcsgE-114" value="price" style="ellipse;whiteSpace=wrap;html=1;align=center;labelBackgroundColor=none;" parent="1" vertex="1">
          <mxGeometry x="-340" y="222.5" width="100" height="40" as="geometry" />
        </mxCell>
        <mxCell id="wPHAMOmzvQz0wvzDcsgE-115" value="description" style="ellipse;whiteSpace=wrap;html=1;align=center;labelBackgroundColor=none;" parent="1" vertex="1">
          <mxGeometry x="-320" y="330.43000000000006" width="100" height="40" as="geometry" />
        </mxCell>
        <mxCell id="wPHAMOmzvQz0wvzDcsgE-117" value="item_state" style="ellipse;whiteSpace=wrap;html=1;align=center;labelBackgroundColor=none;" parent="1" vertex="1">
          <mxGeometry x="-320" y="277.43" width="100" height="40" as="geometry" />
        </mxCell>
        <mxCell id="wPHAMOmzvQz0wvzDcsgE-118" value="title" style="ellipse;whiteSpace=wrap;html=1;align=center;labelBackgroundColor=none;" parent="1" vertex="1">
          <mxGeometry x="-320" y="380.43" width="100" height="40" as="geometry" />
        </mxCell>
        <mxCell id="wPHAMOmzvQz0wvzDcsgE-119" value="" style="endArrow=none;html=1;rounded=0;labelBackgroundColor=none;fontColor=default;" parent="1" source="wPHAMOmzvQz0wvzDcsgE-16" target="wPHAMOmzvQz0wvzDcsgE-114" edge="1">
          <mxGeometry relative="1" as="geometry">
            <mxPoint x="-306.3" y="688.72" as="sourcePoint" />
            <mxPoint x="-146.3" y="688.72" as="targetPoint" />
          </mxGeometry>
        </mxCell>
        <mxCell id="wPHAMOmzvQz0wvzDcsgE-120" value="" style="endArrow=none;html=1;rounded=0;labelBackgroundColor=none;fontColor=default;" parent="1" source="wPHAMOmzvQz0wvzDcsgE-16" target="wPHAMOmzvQz0wvzDcsgE-115" edge="1">
          <mxGeometry relative="1" as="geometry">
            <mxPoint x="-306.3" y="688.72" as="sourcePoint" />
            <mxPoint x="-303.1000000000002" y="538.72" as="targetPoint" />
          </mxGeometry>
        </mxCell>
        <mxCell id="wPHAMOmzvQz0wvzDcsgE-122" value="" style="endArrow=none;html=1;rounded=0;labelBackgroundColor=none;fontColor=default;" parent="1" source="wPHAMOmzvQz0wvzDcsgE-113" target="wPHAMOmzvQz0wvzDcsgE-16" edge="1">
          <mxGeometry relative="1" as="geometry">
            <mxPoint x="-306.3" y="688.72" as="sourcePoint" />
            <mxPoint x="-426.30000000000007" y="578.72" as="targetPoint" />
          </mxGeometry>
        </mxCell>
        <mxCell id="wPHAMOmzvQz0wvzDcsgE-125" value="" style="endArrow=none;html=1;rounded=0;labelBackgroundColor=none;fontColor=default;" parent="1" source="wPHAMOmzvQz0wvzDcsgE-111" target="wPHAMOmzvQz0wvzDcsgE-16" edge="1">
          <mxGeometry relative="1" as="geometry">
            <mxPoint x="-306.3" y="688.72" as="sourcePoint" />
            <mxPoint x="-146.3" y="688.72" as="targetPoint" />
          </mxGeometry>
        </mxCell>
        <mxCell id="wPHAMOmzvQz0wvzDcsgE-126" value="" style="endArrow=none;html=1;rounded=0;labelBackgroundColor=none;fontColor=default;" parent="1" source="wPHAMOmzvQz0wvzDcsgE-117" target="wPHAMOmzvQz0wvzDcsgE-16" edge="1">
          <mxGeometry relative="1" as="geometry">
            <mxPoint x="-306.3" y="688.72" as="sourcePoint" />
            <mxPoint x="-506.30000000000007" y="694.72" as="targetPoint" />
          </mxGeometry>
        </mxCell>
        <mxCell id="wPHAMOmzvQz0wvzDcsgE-128" value="" style="endArrow=none;html=1;rounded=0;labelBackgroundColor=none;fontColor=default;" parent="1" source="wPHAMOmzvQz0wvzDcsgE-118" target="wPHAMOmzvQz0wvzDcsgE-16" edge="1">
          <mxGeometry relative="1" as="geometry">
            <mxPoint x="-306.3" y="688.72" as="sourcePoint" />
            <mxPoint x="-146.3" y="688.72" as="targetPoint" />
          </mxGeometry>
        </mxCell>
        <mxCell id="LBv7Q6NV7wOnJ5ve1A3O-20" value="for" style="shape=rhombus;perimeter=rhombusPerimeter;whiteSpace=wrap;html=1;align=center;labelBackgroundColor=none;" parent="1" vertex="1">
          <mxGeometry x="-922.49" y="439.06" width="90" height="40" as="geometry" />
        </mxCell>
        <mxCell id="LBv7Q6NV7wOnJ5ve1A3O-22" value="" style="endArrow=none;html=1;rounded=0;dashed=1;dashPattern=1 2;labelBackgroundColor=none;fontColor=default;" parent="1" source="LBv7Q6NV7wOnJ5ve1A3O-20" target="wPHAMOmzvQz0wvzDcsgE-16" edge="1">
          <mxGeometry relative="1" as="geometry">
            <mxPoint x="-690" y="810" as="sourcePoint" />
            <mxPoint x="-530" y="810" as="targetPoint" />
          </mxGeometry>
        </mxCell>
        <mxCell id="LBv7Q6NV7wOnJ5ve1A3O-24" value="" style="shape=link;html=1;rounded=0;labelBackgroundColor=none;fontColor=default;" parent="1" source="wPHAMOmzvQz0wvzDcsgE-19" target="LBv7Q6NV7wOnJ5ve1A3O-20" edge="1">
          <mxGeometry relative="1" as="geometry">
            <mxPoint x="-1009.8299999999999" y="940" as="sourcePoint" />
            <mxPoint x="-1489.83" y="850" as="targetPoint" />
          </mxGeometry>
        </mxCell>
        <mxCell id="LBv7Q6NV7wOnJ5ve1A3O-25" value="N" style="resizable=0;html=1;whiteSpace=wrap;align=right;verticalAlign=bottom;labelBackgroundColor=none;" parent="LBv7Q6NV7wOnJ5ve1A3O-24" connectable="0" vertex="1">
          <mxGeometry x="1" relative="1" as="geometry">
            <mxPoint y="20" as="offset" />
          </mxGeometry>
        </mxCell>
        <mxCell id="LBv7Q6NV7wOnJ5ve1A3O-26" value="has" style="shape=rhombus;perimeter=rhombusPerimeter;whiteSpace=wrap;html=1;align=center;labelBackgroundColor=none;" parent="1" vertex="1">
          <mxGeometry x="-1340" y="270" width="120" height="54.87" as="geometry" />
        </mxCell>
        <mxCell id="LBv7Q6NV7wOnJ5ve1A3O-27" value="" style="endArrow=none;html=1;rounded=0;dashed=1;dashPattern=1 2;labelBackgroundColor=none;fontColor=default;" parent="1" source="zcDrhBrNaWHTgkZdKlLX-2" target="LBv7Q6NV7wOnJ5ve1A3O-26" edge="1">
          <mxGeometry relative="1" as="geometry">
            <mxPoint x="-1510.0049484271563" y="75.13000000000022" as="sourcePoint" />
            <mxPoint x="-799.89" y="794.87" as="targetPoint" />
          </mxGeometry>
        </mxCell>
        <mxCell id="LBv7Q6NV7wOnJ5ve1A3O-28" value="1" style="resizable=0;html=1;whiteSpace=wrap;align=right;verticalAlign=bottom;labelBackgroundColor=none;" parent="LBv7Q6NV7wOnJ5ve1A3O-27" connectable="0" vertex="1">
          <mxGeometry x="1" relative="1" as="geometry">
            <mxPoint x="13" y="-1" as="offset" />
          </mxGeometry>
        </mxCell>
        <mxCell id="LBv7Q6NV7wOnJ5ve1A3O-29" value="" style="shape=link;html=1;rounded=0;labelBackgroundColor=none;fontColor=default;" parent="1" source="wPHAMOmzvQz0wvzDcsgE-19" target="LBv7Q6NV7wOnJ5ve1A3O-26" edge="1">
          <mxGeometry relative="1" as="geometry">
            <mxPoint x="-1280" y="440" as="sourcePoint" />
            <mxPoint x="-1045" y="466.86" as="targetPoint" />
          </mxGeometry>
        </mxCell>
        <mxCell id="LBv7Q6NV7wOnJ5ve1A3O-30" value="N" style="resizable=0;html=1;whiteSpace=wrap;align=right;verticalAlign=bottom;labelBackgroundColor=none;" parent="LBv7Q6NV7wOnJ5ve1A3O-29" connectable="0" vertex="1">
          <mxGeometry x="1" relative="1" as="geometry">
            <mxPoint x="15" y="21" as="offset" />
          </mxGeometry>
        </mxCell>
        <mxCell id="LBv7Q6NV7wOnJ5ve1A3O-36" value="created_at" style="ellipse;whiteSpace=wrap;html=1;align=center;labelBackgroundColor=none;" parent="1" vertex="1">
          <mxGeometry x="-1455" y="380.43" width="100" height="40" as="geometry" />
        </mxCell>
        <mxCell id="LBv7Q6NV7wOnJ5ve1A3O-38" value="" style="endArrow=none;html=1;rounded=0;labelBackgroundColor=none;fontColor=default;" parent="1" source="LBv7Q6NV7wOnJ5ve1A3O-36" target="wPHAMOmzvQz0wvzDcsgE-19" edge="1">
          <mxGeometry relative="1" as="geometry">
            <mxPoint x="-792.48" y="579.0600000000001" as="sourcePoint" />
            <mxPoint x="-632.48" y="579.0600000000001" as="targetPoint" />
          </mxGeometry>
        </mxCell>
        <mxCell id="LBv7Q6NV7wOnJ5ve1A3O-51" value="&lt;div&gt;message_content&lt;/div&gt;" style="ellipse;whiteSpace=wrap;html=1;align=center;labelBackgroundColor=none;" parent="1" vertex="1">
          <mxGeometry x="-1475" y="427.67" width="110" height="40" as="geometry" />
        </mxCell>
        <mxCell id="LBv7Q6NV7wOnJ5ve1A3O-58" value="" style="endArrow=none;html=1;rounded=0;labelBackgroundColor=none;fontColor=default;" parent="1" source="wPHAMOmzvQz0wvzDcsgE-19" target="LBv7Q6NV7wOnJ5ve1A3O-51" edge="1">
          <mxGeometry relative="1" as="geometry">
            <mxPoint x="-1363.2478518721914" y="593.06" as="sourcePoint" />
            <mxPoint x="-739.9999999999999" y="744.6499999999999" as="targetPoint" />
          </mxGeometry>
        </mxCell>
        <mxCell id="LBv7Q6NV7wOnJ5ve1A3O-65" value="item_category" style="shape=associativeEntity;whiteSpace=wrap;html=1;align=center;labelBackgroundColor=none;" parent="1" vertex="1">
          <mxGeometry x="-370" y="440" width="120" height="40" as="geometry" />
        </mxCell>
        <mxCell id="LBv7Q6NV7wOnJ5ve1A3O-71" value="" style="endArrow=none;html=1;rounded=0;dashed=1;dashPattern=1 2;labelBackgroundColor=none;fontColor=default;" parent="1" source="wPHAMOmzvQz0wvzDcsgE-18" target="LBv7Q6NV7wOnJ5ve1A3O-65" edge="1">
          <mxGeometry relative="1" as="geometry">
            <mxPoint x="-494.37" y="310.65000000000003" as="sourcePoint" />
            <mxPoint x="-344.37" y="480.65000000000003" as="targetPoint" />
          </mxGeometry>
        </mxCell>
        <mxCell id="LBv7Q6NV7wOnJ5ve1A3O-73" value="category_id" style="ellipse;whiteSpace=wrap;html=1;align=center;fontStyle=4;labelBackgroundColor=none;" parent="1" vertex="1">
          <mxGeometry x="-100.00000000000011" y="440.00000000000006" width="100" height="40" as="geometry" />
        </mxCell>
        <mxCell id="LBv7Q6NV7wOnJ5ve1A3O-74" value="category_name" style="ellipse;whiteSpace=wrap;html=1;align=center;labelBackgroundColor=none;" parent="1" vertex="1">
          <mxGeometry x="-120.00000000000011" y="387.6700000000001" width="100" height="40" as="geometry" />
        </mxCell>
        <mxCell id="LBv7Q6NV7wOnJ5ve1A3O-75" value="description" style="ellipse;whiteSpace=wrap;html=1;align=center;labelBackgroundColor=none;" parent="1" vertex="1">
          <mxGeometry x="-220.0000000000001" y="370.43000000000006" width="100" height="40" as="geometry" />
        </mxCell>
        <mxCell id="LBv7Q6NV7wOnJ5ve1A3O-76" value="" style="endArrow=none;html=1;rounded=0;labelBackgroundColor=none;fontColor=default;" parent="1" source="wPHAMOmzvQz0wvzDcsgE-18" target="LBv7Q6NV7wOnJ5ve1A3O-74" edge="1">
          <mxGeometry relative="1" as="geometry">
            <mxPoint x="-695" y="409.06000000000006" as="sourcePoint" />
            <mxPoint x="-535" y="409.06000000000006" as="targetPoint" />
          </mxGeometry>
        </mxCell>
        <mxCell id="LBv7Q6NV7wOnJ5ve1A3O-77" value="" style="endArrow=none;html=1;rounded=0;labelBackgroundColor=none;fontColor=default;" parent="1" source="wPHAMOmzvQz0wvzDcsgE-18" target="LBv7Q6NV7wOnJ5ve1A3O-73" edge="1">
          <mxGeometry relative="1" as="geometry">
            <mxPoint x="-695" y="409.06000000000006" as="sourcePoint" />
            <mxPoint x="-535" y="409.06000000000006" as="targetPoint" />
          </mxGeometry>
        </mxCell>
        <mxCell id="LBv7Q6NV7wOnJ5ve1A3O-78" value="" style="endArrow=none;html=1;rounded=0;labelBackgroundColor=none;fontColor=default;" parent="1" source="LBv7Q6NV7wOnJ5ve1A3O-75" target="wPHAMOmzvQz0wvzDcsgE-18" edge="1">
          <mxGeometry relative="1" as="geometry">
            <mxPoint x="-695" y="409.06000000000006" as="sourcePoint" />
            <mxPoint x="-535" y="409.06000000000006" as="targetPoint" />
          </mxGeometry>
        </mxCell>
        <mxCell id="LBv7Q6NV7wOnJ5ve1A3O-79" value="" style="shape=link;html=1;rounded=0;labelBackgroundColor=none;fontColor=default;" parent="1" source="wPHAMOmzvQz0wvzDcsgE-16" target="LBv7Q6NV7wOnJ5ve1A3O-65" edge="1">
          <mxGeometry relative="1" as="geometry">
            <mxPoint x="-730" y="288.72" as="sourcePoint" />
            <mxPoint x="-570" y="288.72" as="targetPoint" />
          </mxGeometry>
        </mxCell>
        <mxCell id="LBv7Q6NV7wOnJ5ve1A3O-80" value="N" style="resizable=0;html=1;whiteSpace=wrap;align=right;verticalAlign=bottom;labelBackgroundColor=none;" parent="LBv7Q6NV7wOnJ5ve1A3O-79" connectable="0" vertex="1">
          <mxGeometry x="1" relative="1" as="geometry">
            <mxPoint x="-5" y="20" as="offset" />
          </mxGeometry>
        </mxCell>
        <mxCell id="LBv7Q6NV7wOnJ5ve1A3O-121" value="delivery_address" style="ellipse;whiteSpace=wrap;html=1;align=center;labelBackgroundColor=none;" parent="1" vertex="1">
          <mxGeometry x="-1090" y="157.49999999999997" width="100" height="40" as="geometry" />
        </mxCell>
        <mxCell id="LBv7Q6NV7wOnJ5ve1A3O-122" value="" style="endArrow=none;html=1;rounded=0;labelBackgroundColor=none;fontColor=default;" parent="1" source="zcDrhBrNaWHTgkZdKlLX-59" target="LBv7Q6NV7wOnJ5ve1A3O-121" edge="1">
          <mxGeometry relative="1" as="geometry">
            <mxPoint x="-909.2182027524517" y="521.68" as="sourcePoint" />
            <mxPoint x="-497.17" y="74.68" as="targetPoint" />
            <Array as="points" />
          </mxGeometry>
        </mxCell>
        <mxCell id="aZTp0AiIuB95CZH_338X-19" value="REVIEW" style="whiteSpace=wrap;html=1;align=center;labelBackgroundColor=none;" parent="1" vertex="1">
          <mxGeometry x="-530" y="117.5" width="100" height="40" as="geometry" />
        </mxCell>
        <mxCell id="aZTp0AiIuB95CZH_338X-21" value="review_id" style="ellipse;whiteSpace=wrap;html=1;align=center;fontStyle=4;labelBackgroundColor=none;" parent="1" vertex="1">
          <mxGeometry x="-459.99999999999994" y="40" width="100" height="40" as="geometry" />
        </mxCell>
        <mxCell id="aZTp0AiIuB95CZH_338X-23" value="comment" style="ellipse;whiteSpace=wrap;html=1;align=center;labelBackgroundColor=none;" parent="1" vertex="1">
          <mxGeometry x="-540" y="-5" width="100" height="40" as="geometry" />
        </mxCell>
        <mxCell id="aZTp0AiIuB95CZH_338X-24" value="" style="endArrow=none;html=1;rounded=0;exitX=0.365;exitY=0.929;exitDx=0;exitDy=0;exitPerimeter=0;entryX=0.75;entryY=0;entryDx=0;entryDy=0;labelBackgroundColor=none;fontColor=default;" parent="1" source="aZTp0AiIuB95CZH_338X-21" target="aZTp0AiIuB95CZH_338X-19" edge="1">
          <mxGeometry relative="1" as="geometry">
            <mxPoint x="612.83" y="687.5" as="sourcePoint" />
            <mxPoint x="772.83" y="687.5" as="targetPoint" />
          </mxGeometry>
        </mxCell>
        <mxCell id="aZTp0AiIuB95CZH_338X-25" value="" style="endArrow=none;html=1;rounded=0;exitX=0.61;exitY=1.042;exitDx=0;exitDy=0;exitPerimeter=0;labelBackgroundColor=none;fontColor=default;" parent="1" source="aZTp0AiIuB95CZH_338X-23" target="aZTp0AiIuB95CZH_338X-19" edge="1">
          <mxGeometry relative="1" as="geometry">
            <mxPoint x="612.83" y="687.5" as="sourcePoint" />
            <mxPoint x="772.83" y="687.5" as="targetPoint" />
          </mxGeometry>
        </mxCell>
        <mxCell id="aZTp0AiIuB95CZH_338X-26" value="" style="endArrow=none;html=1;rounded=0;labelBackgroundColor=none;fontColor=default;" parent="1" source="aZTp0AiIuB95CZH_338X-22" target="aZTp0AiIuB95CZH_338X-19" edge="1">
          <mxGeometry relative="1" as="geometry">
            <mxPoint x="-564.5700000000003" y="46.179999999999836" as="sourcePoint" />
            <mxPoint x="772.83" y="687.5" as="targetPoint" />
          </mxGeometry>
        </mxCell>
        <mxCell id="aZTp0AiIuB95CZH_338X-31" value="" style="endArrow=none;html=1;rounded=0;dashed=1;dashPattern=1 2;labelBackgroundColor=none;fontColor=default;" parent="1" source="zcDrhBrNaWHTgkZdKlLX-2" target="aZTp0AiIuB95CZH_338X-33" edge="1">
          <mxGeometry relative="1" as="geometry">
            <mxPoint x="-1133.2727272727275" y="335" as="sourcePoint" />
            <mxPoint x="-920" y="80" as="targetPoint" />
          </mxGeometry>
        </mxCell>
        <mxCell id="aZTp0AiIuB95CZH_338X-32" value="1" style="resizable=0;html=1;whiteSpace=wrap;align=right;verticalAlign=bottom;labelBackgroundColor=none;" parent="aZTp0AiIuB95CZH_338X-31" connectable="0" vertex="1">
          <mxGeometry x="1" relative="1" as="geometry">
            <mxPoint x="-2" y="20" as="offset" />
          </mxGeometry>
        </mxCell>
        <mxCell id="aZTp0AiIuB95CZH_338X-33" value="has" style="shape=rhombus;perimeter=rhombusPerimeter;whiteSpace=wrap;html=1;align=center;labelBackgroundColor=none;" parent="1" vertex="1">
          <mxGeometry x="-937.4900000000001" y="105" width="120" height="60" as="geometry" />
        </mxCell>
        <mxCell id="aZTp0AiIuB95CZH_338X-34" value="" style="shape=link;html=1;rounded=0;labelBackgroundColor=none;fontColor=default;" parent="1" source="aZTp0AiIuB95CZH_338X-19" target="aZTp0AiIuB95CZH_338X-33" edge="1">
          <mxGeometry relative="1" as="geometry">
            <mxPoint x="-750" y="810" as="sourcePoint" />
            <mxPoint x="-590" y="810" as="targetPoint" />
          </mxGeometry>
        </mxCell>
        <mxCell id="aZTp0AiIuB95CZH_338X-35" value="N" style="resizable=0;html=1;whiteSpace=wrap;align=right;verticalAlign=bottom;labelBackgroundColor=none;" parent="aZTp0AiIuB95CZH_338X-34" connectable="0" vertex="1">
          <mxGeometry x="1" relative="1" as="geometry">
            <mxPoint x="13" y="22" as="offset" />
          </mxGeometry>
        </mxCell>
        <mxCell id="zcDrhBrNaWHTgkZdKlLX-2" value="customer" style="whiteSpace=wrap;html=1;align=center;labelBackgroundColor=none;" parent="1" vertex="1">
          <mxGeometry x="-1330" y="120" width="100" height="40" as="geometry" />
        </mxCell>
        <mxCell id="zcDrhBrNaWHTgkZdKlLX-1" value="lender" style="whiteSpace=wrap;html=1;align=center;labelBackgroundColor=none;" parent="1" vertex="1">
          <mxGeometry x="-922.49" y="698.56" width="100" height="42.87" as="geometry" />
        </mxCell>
        <mxCell id="zcDrhBrNaWHTgkZdKlLX-6" value="name" style="ellipse;whiteSpace=wrap;html=1;align=center;labelBackgroundColor=none;" parent="1" vertex="1">
          <mxGeometry x="-1515" y="85" width="90" height="35" as="geometry" />
        </mxCell>
        <mxCell id="zcDrhBrNaWHTgkZdKlLX-7" value="first_name" style="ellipse;whiteSpace=wrap;html=1;align=center;labelBackgroundColor=none;" parent="1" vertex="1">
          <mxGeometry x="-1630" y="85" width="70" height="30" as="geometry" />
        </mxCell>
        <mxCell id="zcDrhBrNaWHTgkZdKlLX-9" value="last_name" style="ellipse;whiteSpace=wrap;html=1;align=center;labelBackgroundColor=none;" parent="1" vertex="1">
          <mxGeometry x="-1605" y="45" width="70" height="30" as="geometry" />
        </mxCell>
        <mxCell id="zcDrhBrNaWHTgkZdKlLX-10" value="" style="endArrow=none;html=1;rounded=0;labelBackgroundColor=none;fontColor=default;" parent="1" source="zcDrhBrNaWHTgkZdKlLX-9" target="zcDrhBrNaWHTgkZdKlLX-6" edge="1">
          <mxGeometry relative="1" as="geometry">
            <mxPoint x="-510" y="810.26" as="sourcePoint" />
            <mxPoint x="-1560" y="-159.74" as="targetPoint" />
            <Array as="points" />
          </mxGeometry>
        </mxCell>
        <mxCell id="zcDrhBrNaWHTgkZdKlLX-12" value="" style="endArrow=none;html=1;rounded=0;labelBackgroundColor=none;fontColor=default;" parent="1" source="zcDrhBrNaWHTgkZdKlLX-7" target="zcDrhBrNaWHTgkZdKlLX-6" edge="1">
          <mxGeometry relative="1" as="geometry">
            <mxPoint x="-1160" y="660.26" as="sourcePoint" />
            <mxPoint x="-640" y="700.26" as="targetPoint" />
          </mxGeometry>
        </mxCell>
        <mxCell id="zcDrhBrNaWHTgkZdKlLX-14" value="email" style="ellipse;whiteSpace=wrap;html=1;align=center;labelBackgroundColor=none;" parent="1" vertex="1">
          <mxGeometry x="-1280" y="35" width="90" height="30" as="geometry" />
        </mxCell>
        <mxCell id="zcDrhBrNaWHTgkZdKlLX-15" value="" style="endArrow=none;html=1;rounded=0;exitX=0.5;exitY=0;exitDx=0;exitDy=0;labelBackgroundColor=none;fontColor=default;" parent="1" source="zcDrhBrNaWHTgkZdKlLX-2" target="zcDrhBrNaWHTgkZdKlLX-14" edge="1">
          <mxGeometry relative="1" as="geometry">
            <mxPoint x="-1445" y="-209.74" as="sourcePoint" />
            <mxPoint x="-1456.6476951358195" y="-360.00063847497563" as="targetPoint" />
            <Array as="points" />
          </mxGeometry>
        </mxCell>
        <mxCell id="zcDrhBrNaWHTgkZdKlLX-16" value="password" style="ellipse;whiteSpace=wrap;html=1;align=center;labelBackgroundColor=none;" parent="1" vertex="1">
          <mxGeometry x="-1230" y="70" width="70" height="30" as="geometry" />
        </mxCell>
        <mxCell id="zcDrhBrNaWHTgkZdKlLX-17" value="" style="endArrow=none;html=1;rounded=0;labelBackgroundColor=none;fontColor=default;" parent="1" source="zcDrhBrNaWHTgkZdKlLX-2" target="zcDrhBrNaWHTgkZdKlLX-16" edge="1">
          <mxGeometry relative="1" as="geometry">
            <mxPoint x="-1300" y="-279.74" as="sourcePoint" />
            <mxPoint x="-1345" y="-329.74" as="targetPoint" />
            <Array as="points" />
          </mxGeometry>
        </mxCell>
        <mxCell id="zcDrhBrNaWHTgkZdKlLX-18" value="gender" style="ellipse;whiteSpace=wrap;html=1;align=center;labelBackgroundColor=none;" parent="1" vertex="1">
          <mxGeometry x="-1515" y="35" width="90" height="35" as="geometry" />
        </mxCell>
        <mxCell id="zcDrhBrNaWHTgkZdKlLX-19" value="" style="endArrow=none;html=1;rounded=0;labelBackgroundColor=none;fontColor=default;" parent="1" source="zcDrhBrNaWHTgkZdKlLX-2" target="zcDrhBrNaWHTgkZdKlLX-18" edge="1">
          <mxGeometry relative="1" as="geometry">
            <mxPoint x="-870" y="465.26" as="sourcePoint" />
            <mxPoint x="-1565" y="-339.74" as="targetPoint" />
            <Array as="points" />
          </mxGeometry>
        </mxCell>
        <mxCell id="zcDrhBrNaWHTgkZdKlLX-45" value="" style="endArrow=none;html=1;rounded=0;labelBackgroundColor=none;fontColor=default;" parent="1" source="zcDrhBrNaWHTgkZdKlLX-6" target="zcDrhBrNaWHTgkZdKlLX-2" edge="1">
          <mxGeometry relative="1" as="geometry">
            <mxPoint x="-1722" y="-240.74" as="sourcePoint" />
            <mxPoint x="-1636" y="-149.74" as="targetPoint" />
          </mxGeometry>
        </mxCell>
        <mxCell id="zcDrhBrNaWHTgkZdKlLX-46" value="has" style="shape=rhombus;perimeter=rhombusPerimeter;whiteSpace=wrap;html=1;align=center;labelBackgroundColor=none;" parent="1" vertex="1">
          <mxGeometry x="-1330" y="690" width="100" height="60" as="geometry" />
        </mxCell>
        <mxCell id="zcDrhBrNaWHTgkZdKlLX-47" value="" style="endArrow=none;html=1;rounded=0;dashed=1;dashPattern=1 2;entryX=1;entryY=0.5;entryDx=0;entryDy=0;labelBackgroundColor=none;fontColor=default;" parent="1" source="zcDrhBrNaWHTgkZdKlLX-1" target="zcDrhBrNaWHTgkZdKlLX-46" edge="1">
          <mxGeometry relative="1" as="geometry">
            <mxPoint x="-654.6700000000001" y="837.13" as="sourcePoint" />
            <mxPoint x="-854.6700000000001" y="767.13" as="targetPoint" />
          </mxGeometry>
        </mxCell>
        <mxCell id="zcDrhBrNaWHTgkZdKlLX-48" value="1" style="resizable=0;html=1;whiteSpace=wrap;align=right;verticalAlign=bottom;labelBackgroundColor=none;" parent="zcDrhBrNaWHTgkZdKlLX-47" connectable="0" vertex="1">
          <mxGeometry x="1" relative="1" as="geometry">
            <mxPoint as="offset" />
          </mxGeometry>
        </mxCell>
        <mxCell id="zcDrhBrNaWHTgkZdKlLX-49" value="" style="shape=link;html=1;rounded=0;labelBackgroundColor=none;fontColor=default;" parent="1" source="wPHAMOmzvQz0wvzDcsgE-19" target="zcDrhBrNaWHTgkZdKlLX-46" edge="1">
          <mxGeometry relative="1" as="geometry">
            <mxPoint x="-860" y="760" as="sourcePoint" />
            <mxPoint x="-520" y="820" as="targetPoint" />
          </mxGeometry>
        </mxCell>
        <mxCell id="zcDrhBrNaWHTgkZdKlLX-50" value="N" style="resizable=0;html=1;whiteSpace=wrap;align=right;verticalAlign=bottom;labelBackgroundColor=none;" parent="zcDrhBrNaWHTgkZdKlLX-49" connectable="0" vertex="1">
          <mxGeometry x="1" relative="1" as="geometry">
            <mxPoint x="15" as="offset" />
          </mxGeometry>
        </mxCell>
        <mxCell id="zcDrhBrNaWHTgkZdKlLX-52" value="rent_id" style="ellipse;whiteSpace=wrap;html=1;align=center;fontStyle=4;labelBackgroundColor=none;" parent="1" vertex="1">
          <mxGeometry x="-870" y="165" width="90" height="30" as="geometry" />
        </mxCell>
        <mxCell id="zcDrhBrNaWHTgkZdKlLX-53" value="rented_time" style="ellipse;whiteSpace=wrap;html=1;align=center;labelBackgroundColor=none;" parent="1" vertex="1">
          <mxGeometry x="-767.17" y="247.42999999999995" width="90" height="30" as="geometry" />
        </mxCell>
        <mxCell id="zcDrhBrNaWHTgkZdKlLX-54" value="end_data" style="ellipse;whiteSpace=wrap;html=1;align=center;labelBackgroundColor=none;" parent="1" vertex="1">
          <mxGeometry x="-767.17" y="209.99999999999997" width="90" height="30" as="geometry" />
        </mxCell>
        <mxCell id="zcDrhBrNaWHTgkZdKlLX-55" value="start_date" style="ellipse;whiteSpace=wrap;html=1;align=center;labelBackgroundColor=none;" parent="1" vertex="1">
          <mxGeometry x="-767.17" y="164.99999999999994" width="80" height="30" as="geometry" />
        </mxCell>
        <mxCell id="zcDrhBrNaWHTgkZdKlLX-56" value="" style="endArrow=none;html=1;rounded=0;labelBackgroundColor=none;fontColor=default;" parent="1" source="zcDrhBrNaWHTgkZdKlLX-59" target="zcDrhBrNaWHTgkZdKlLX-53" edge="1">
          <mxGeometry relative="1" as="geometry">
            <mxPoint x="-821.13" y="-10.569999999999993" as="sourcePoint" />
            <mxPoint x="-822.17" y="130.43" as="targetPoint" />
          </mxGeometry>
        </mxCell>
        <mxCell id="zcDrhBrNaWHTgkZdKlLX-57" value="" style="endArrow=none;html=1;rounded=0;labelBackgroundColor=none;fontColor=default;" parent="1" source="zcDrhBrNaWHTgkZdKlLX-59" target="zcDrhBrNaWHTgkZdKlLX-54" edge="1">
          <mxGeometry relative="1" as="geometry">
            <mxPoint x="-790.17" y="-0.5500000000000114" as="sourcePoint" />
            <mxPoint x="-822.17" y="130.43" as="targetPoint" />
          </mxGeometry>
        </mxCell>
        <mxCell id="zcDrhBrNaWHTgkZdKlLX-58" value="" style="endArrow=none;html=1;rounded=0;labelBackgroundColor=none;fontColor=default;" parent="1" source="zcDrhBrNaWHTgkZdKlLX-59" target="zcDrhBrNaWHTgkZdKlLX-55" edge="1">
          <mxGeometry relative="1" as="geometry">
            <mxPoint x="-737.17" y="310.42999999999995" as="sourcePoint" />
            <mxPoint x="-507.1700000000001" y="12.930000000000007" as="targetPoint" />
          </mxGeometry>
        </mxCell>
        <mxCell id="zcDrhBrNaWHTgkZdKlLX-59" value="rent" style="shape=associativeEntity;whiteSpace=wrap;html=1;align=center;labelBackgroundColor=none;" parent="1" vertex="1">
          <mxGeometry x="-937.49" y="295.49" width="110" height="44.87" as="geometry" />
        </mxCell>
        <mxCell id="zcDrhBrNaWHTgkZdKlLX-60" value="" style="endArrow=none;html=1;rounded=0;dashed=1;dashPattern=1 2;labelBackgroundColor=none;fontColor=default;" parent="1" source="zcDrhBrNaWHTgkZdKlLX-2" target="zcDrhBrNaWHTgkZdKlLX-59" edge="1">
          <mxGeometry relative="1" as="geometry">
            <mxPoint x="-1050" y="-230" as="sourcePoint" />
            <mxPoint x="-885" y="100" as="targetPoint" />
            <Array as="points">
              <mxPoint x="-1120" y="320" />
            </Array>
          </mxGeometry>
        </mxCell>
        <mxCell id="zcDrhBrNaWHTgkZdKlLX-61" value="" style="resizable=0;html=1;whiteSpace=wrap;align=right;verticalAlign=bottom;labelBackgroundColor=none;" parent="zcDrhBrNaWHTgkZdKlLX-60" connectable="0" vertex="1">
          <mxGeometry x="1" relative="1" as="geometry">
            <mxPoint y="21" as="offset" />
          </mxGeometry>
        </mxCell>
        <mxCell id="zcDrhBrNaWHTgkZdKlLX-62" value="" style="endArrow=none;html=1;rounded=0;dashed=1;dashPattern=1 2;labelBackgroundColor=none;fontColor=default;" parent="1" source="wPHAMOmzvQz0wvzDcsgE-16" target="zcDrhBrNaWHTgkZdKlLX-59" edge="1">
          <mxGeometry relative="1" as="geometry">
            <mxPoint x="-623" y="251.5" as="sourcePoint" />
            <mxPoint x="-565" y="398.5333333333333" as="targetPoint" />
            <Array as="points">
              <mxPoint x="-640" y="320" />
              <mxPoint x="-730" y="320" />
            </Array>
          </mxGeometry>
        </mxCell>
        <mxCell id="zcDrhBrNaWHTgkZdKlLX-64" value="" style="endArrow=none;html=1;rounded=0;labelBackgroundColor=none;fontColor=default;" parent="1" source="zcDrhBrNaWHTgkZdKlLX-59" target="zcDrhBrNaWHTgkZdKlLX-52" edge="1">
          <mxGeometry relative="1" as="geometry">
            <mxPoint x="-895.17" y="-9.569999999999993" as="sourcePoint" />
            <mxPoint x="-912.17" y="-119.57" as="targetPoint" />
            <Array as="points" />
          </mxGeometry>
        </mxCell>
        <mxCell id="zcDrhBrNaWHTgkZdKlLX-66" value="" style="endArrow=none;html=1;rounded=0;labelBackgroundColor=none;fontColor=default;" parent="1" source="zcDrhBrNaWHTgkZdKlLX-67" target="zcDrhBrNaWHTgkZdKlLX-2" edge="1">
          <mxGeometry relative="1" as="geometry">
            <mxPoint x="-1690" y="-360" as="sourcePoint" />
            <mxPoint x="-1650.48" y="-362.4749999999999" as="targetPoint" />
          </mxGeometry>
        </mxCell>
        <mxCell id="zcDrhBrNaWHTgkZdKlLX-67" value="customer_id" style="ellipse;whiteSpace=wrap;html=1;align=center;fontStyle=4;labelBackgroundColor=none;" parent="1" vertex="1">
          <mxGeometry x="-1350" y="5" width="90" height="30" as="geometry" />
        </mxCell>
        <mxCell id="zcDrhBrNaWHTgkZdKlLX-68" value="payment_token" style="ellipse;whiteSpace=wrap;html=1;align=center;" parent="1" vertex="1">
          <mxGeometry x="-980.97" y="160" width="100" height="40" as="geometry" />
        </mxCell>
        <mxCell id="zcDrhBrNaWHTgkZdKlLX-73" value="estimated_time" style="ellipse;whiteSpace=wrap;html=1;align=center;" parent="1" vertex="1">
          <mxGeometry x="-1110" y="209.99999999999994" width="100" height="40" as="geometry" />
        </mxCell>
        <mxCell id="zcDrhBrNaWHTgkZdKlLX-74" value="" style="endArrow=none;html=1;rounded=0;" parent="1" source="zcDrhBrNaWHTgkZdKlLX-59" target="zcDrhBrNaWHTgkZdKlLX-73" edge="1">
          <mxGeometry relative="1" as="geometry">
            <mxPoint x="-898.2599999999996" y="29.44999999999999" as="sourcePoint" />
            <mxPoint x="-597.17" y="48.43000000000001" as="targetPoint" />
          </mxGeometry>
        </mxCell>
        <mxCell id="zcDrhBrNaWHTgkZdKlLX-75" value="" style="endArrow=none;html=1;rounded=0;" parent="1" source="zcDrhBrNaWHTgkZdKlLX-59" target="zcDrhBrNaWHTgkZdKlLX-68" edge="1">
          <mxGeometry relative="1" as="geometry">
            <mxPoint x="-918.9299999999997" y="27.410000000000252" as="sourcePoint" />
            <mxPoint x="-956.8700000000002" y="46.03000000000014" as="targetPoint" />
          </mxGeometry>
        </mxCell>
        <mxCell id="l5rkrlbVSnDCzaqGxp_b-7" value="1" style="resizable=0;html=1;whiteSpace=wrap;align=right;verticalAlign=bottom;labelBackgroundColor=none;" parent="1" connectable="0" vertex="1">
          <mxGeometry x="-862.1673305348871" y="539.9960557887591" as="geometry">
            <mxPoint x="39" y="-59" as="offset" />
          </mxGeometry>
        </mxCell>
        <mxCell id="l5rkrlbVSnDCzaqGxp_b-9" value="1" style="resizable=0;html=1;whiteSpace=wrap;align=right;verticalAlign=bottom;labelBackgroundColor=none;" parent="1" connectable="0" vertex="1">
          <mxGeometry x="-487.16733053488724" y="304.8660557887591" as="geometry">
            <mxPoint x="2" y="33" as="offset" />
          </mxGeometry>
        </mxCell>
        <mxCell id="l5rkrlbVSnDCzaqGxp_b-10" value="1" style="resizable=0;html=1;whiteSpace=wrap;align=right;verticalAlign=bottom;labelBackgroundColor=none;" parent="1" connectable="0" vertex="1">
          <mxGeometry x="-429.99733053488717" y="729.9960557887591" as="geometry">
            <mxPoint x="-97" y="-16" as="offset" />
          </mxGeometry>
        </mxCell>
        <mxCell id="l5rkrlbVSnDCzaqGxp_b-11" value="N" style="resizable=0;html=1;whiteSpace=wrap;align=right;verticalAlign=bottom;labelBackgroundColor=none;" parent="1" connectable="0" vertex="1">
          <mxGeometry x="-487.1657526169276" y="690.0046522603649" as="geometry" />
        </mxCell>
        <mxCell id="l5rkrlbVSnDCzaqGxp_b-20" value="" style="endArrow=none;html=1;rounded=0;dashed=1;dashPattern=1 2;labelBackgroundColor=none;fontColor=default;" parent="1" source="wPHAMOmzvQz0wvzDcsgE-16" target="l5rkrlbVSnDCzaqGxp_b-22" edge="1">
          <mxGeometry relative="1" as="geometry">
            <mxPoint x="-480" y="390" as="sourcePoint" />
            <mxPoint x="-469.9964893476692" y="330.6521940011654" as="targetPoint" />
          </mxGeometry>
        </mxCell>
        <mxCell id="l5rkrlbVSnDCzaqGxp_b-22" value="has" style="shape=rhombus;perimeter=rhombusPerimeter;whiteSpace=wrap;html=1;align=center;labelBackgroundColor=none;" parent="1" vertex="1">
          <mxGeometry x="-540" y="269.32" width="120" height="50.68" as="geometry" />
        </mxCell>
        <mxCell id="l5rkrlbVSnDCzaqGxp_b-23" value="" style="shape=link;html=1;rounded=0;labelBackgroundColor=none;fontColor=default;" parent="1" source="aZTp0AiIuB95CZH_338X-19" target="l5rkrlbVSnDCzaqGxp_b-22" edge="1">
          <mxGeometry relative="1" as="geometry">
            <mxPoint x="-501" y="110" as="sourcePoint" />
            <mxPoint x="-580" y="820" as="targetPoint" />
          </mxGeometry>
        </mxCell>
        <mxCell id="l5rkrlbVSnDCzaqGxp_b-24" value="N" style="resizable=0;html=1;whiteSpace=wrap;align=right;verticalAlign=bottom;labelBackgroundColor=none;" parent="l5rkrlbVSnDCzaqGxp_b-23" connectable="0" vertex="1">
          <mxGeometry x="1" relative="1" as="geometry">
            <mxPoint x="-7" y="1" as="offset" />
          </mxGeometry>
        </mxCell>
        <mxCell id="l5rkrlbVSnDCzaqGxp_b-28" value="score" style="ellipse;whiteSpace=wrap;html=1;align=center;labelBackgroundColor=none;" parent="1" vertex="1">
          <mxGeometry x="-1440" y="162.5" width="90" height="35" as="geometry" />
        </mxCell>
        <mxCell id="l5rkrlbVSnDCzaqGxp_b-29" value="" style="endArrow=none;html=1;rounded=0;labelBackgroundColor=none;fontColor=default;" parent="1" source="zcDrhBrNaWHTgkZdKlLX-2" target="l5rkrlbVSnDCzaqGxp_b-28" edge="1">
          <mxGeometry relative="1" as="geometry">
            <mxPoint x="-1365" y="120" as="sourcePoint" />
            <mxPoint x="-1200" y="50" as="targetPoint" />
            <Array as="points" />
          </mxGeometry>
        </mxCell>
        <mxCell id="l5rkrlbVSnDCzaqGxp_b-30" value="phone_num" style="ellipse;shape=doubleEllipse;margin=3;whiteSpace=wrap;html=1;align=center;labelBackgroundColor=none;" parent="1" vertex="1">
          <mxGeometry x="-1450" y="5" width="90" height="30" as="geometry" />
        </mxCell>
        <mxCell id="l5rkrlbVSnDCzaqGxp_b-31" value="" style="endArrow=none;html=1;rounded=0;labelBackgroundColor=none;fontColor=default;" parent="1" source="zcDrhBrNaWHTgkZdKlLX-2" target="l5rkrlbVSnDCzaqGxp_b-30" edge="1">
          <mxGeometry relative="1" as="geometry">
            <mxPoint x="-1550" y="-10.5" as="sourcePoint" />
            <mxPoint x="-1340" y="47.5" as="targetPoint" />
          </mxGeometry>
        </mxCell>
        <mxCell id="l5rkrlbVSnDCzaqGxp_b-33" value="total_price" style="ellipse;whiteSpace=wrap;html=1;align=center;dashed=1;" parent="1" vertex="1">
          <mxGeometry x="-1100" y="262.49999999999994" width="100" height="40" as="geometry" />
        </mxCell>
        <mxCell id="l5rkrlbVSnDCzaqGxp_b-34" value="" style="endArrow=none;html=1;rounded=0;labelBackgroundColor=none;fontColor=default;" parent="1" source="zcDrhBrNaWHTgkZdKlLX-59" target="l5rkrlbVSnDCzaqGxp_b-33" edge="1">
          <mxGeometry relative="1" as="geometry">
            <mxPoint x="-927.17" y="260.42999999999995" as="sourcePoint" />
            <mxPoint x="-921.17" y="240.42999999999998" as="targetPoint" />
            <Array as="points" />
          </mxGeometry>
        </mxCell>
        <mxCell id="aZTp0AiIuB95CZH_338X-22" value="rating" style="ellipse;whiteSpace=wrap;html=1;align=center;labelBackgroundColor=none;" parent="1" vertex="1">
          <mxGeometry x="-600" y="40" width="100" height="40" as="geometry" />
        </mxCell>
        <mxCell id="wPHAMOmzvQz0wvzDcsgE-71" value="City" style="ellipse;whiteSpace=wrap;html=1;align=center;labelBackgroundColor=none;" parent="1" vertex="1">
          <mxGeometry x="-1580" y="165" width="60" height="20" as="geometry" />
        </mxCell>
        <mxCell id="wPHAMOmzvQz0wvzDcsgE-55" value="first_name" style="ellipse;whiteSpace=wrap;html=1;align=center;labelBackgroundColor=none;" parent="1" vertex="1">
          <mxGeometry x="-1140" y="730" width="85.33" height="30" as="geometry" />
        </mxCell>
        <mxCell id="uj0VwHWcSZS7kANKwUQm-13" value="N" style="resizable=0;html=1;whiteSpace=wrap;align=right;verticalAlign=bottom;labelBackgroundColor=none;" parent="1" connectable="0" vertex="1">
          <mxGeometry x="-809.6725969273117" y="340.35989152085284" as="geometry" />
        </mxCell>
        <mxCell id="uj0VwHWcSZS7kANKwUQm-14" value="N" style="resizable=0;html=1;whiteSpace=wrap;align=right;verticalAlign=bottom;labelBackgroundColor=none;" parent="1" connectable="0" vertex="1">
          <mxGeometry x="-630.0025969273117" y="234.77989152085283" as="geometry">
            <mxPoint x="-315" y="105" as="offset" />
          </mxGeometry>
        </mxCell>
        <mxCell id="uj0VwHWcSZS7kANKwUQm-15" value="sender" style="ellipse;whiteSpace=wrap;html=1;align=center;labelBackgroundColor=none;" parent="1" vertex="1">
          <mxGeometry x="-1465" y="489.99999999999994" width="100" height="40" as="geometry" />
        </mxCell>
        <mxCell id="uj0VwHWcSZS7kANKwUQm-16" value="" style="endArrow=none;html=1;rounded=0;labelBackgroundColor=none;fontColor=default;" parent="1" source="wPHAMOmzvQz0wvzDcsgE-19" target="uj0VwHWcSZS7kANKwUQm-15" edge="1">
          <mxGeometry relative="1" as="geometry">
            <mxPoint x="-1535" y="546.93" as="sourcePoint" />
            <mxPoint x="-1632" y="511.87" as="targetPoint" />
          </mxGeometry>
        </mxCell>
        <mxCell id="hPF8R6Tc0S8_T8GDy46c-1" value="N" style="resizable=0;html=1;whiteSpace=wrap;align=right;verticalAlign=bottom;labelBackgroundColor=none;" parent="1" connectable="0" vertex="1">
          <mxGeometry x="-365.0004803727677" y="500.0004484960248" as="geometry">
            <mxPoint x="133" y="-21" as="offset" />
          </mxGeometry>
        </mxCell>
        <mxCell id="0XGc7VsISCD8UtarIq86-1" value="subscription" style="ellipse;whiteSpace=wrap;html=1;align=center;labelBackgroundColor=none;" parent="1" vertex="1">
          <mxGeometry x="-1085" y="850" width="90" height="30" as="geometry" />
        </mxCell>
        <mxCell id="0XGc7VsISCD8UtarIq86-2" value="" style="endArrow=none;html=1;rounded=0;labelBackgroundColor=none;fontColor=default;" parent="1" source="zcDrhBrNaWHTgkZdKlLX-1" target="0XGc7VsISCD8UtarIq86-1" edge="1">
          <mxGeometry relative="1" as="geometry">
            <mxPoint x="-1042.33" y="890" as="sourcePoint" />
            <mxPoint x="-722.5000000000001" y="1086.13" as="targetPoint" />
          </mxGeometry>
        </mxCell>
        <mxCell id="jIbfmG40FLPaIlMM_xMi-2" value="address" style="ellipse;whiteSpace=wrap;html=1;align=center;labelBackgroundColor=none;" parent="1" vertex="1">
          <mxGeometry x="-917.49" y="810" width="80" height="30" as="geometry" />
        </mxCell>
        <mxCell id="jIbfmG40FLPaIlMM_xMi-3" value="" style="endArrow=none;html=1;rounded=0;labelBackgroundColor=none;fontColor=default;" parent="1" source="zcDrhBrNaWHTgkZdKlLX-1" target="jIbfmG40FLPaIlMM_xMi-2" edge="1">
          <mxGeometry relative="1" as="geometry">
            <mxPoint x="-925" y="903.5" as="sourcePoint" />
            <mxPoint x="-325" y="1372.76" as="targetPoint" />
          </mxGeometry>
        </mxCell>
        <mxCell id="jIbfmG40FLPaIlMM_xMi-4" value="state" style="ellipse;whiteSpace=wrap;html=1;align=center;labelBackgroundColor=none;" parent="1" vertex="1">
          <mxGeometry x="-990" y="870" width="70" height="20" as="geometry" />
        </mxCell>
        <mxCell id="jIbfmG40FLPaIlMM_xMi-5" value="" style="endArrow=none;html=1;rounded=0;labelBackgroundColor=none;fontColor=default;" parent="1" source="jIbfmG40FLPaIlMM_xMi-4" target="jIbfmG40FLPaIlMM_xMi-2" edge="1">
          <mxGeometry relative="1" as="geometry">
            <mxPoint x="-485" y="1282.76" as="sourcePoint" />
            <mxPoint x="-325" y="1282.76" as="targetPoint" />
          </mxGeometry>
        </mxCell>
        <mxCell id="jIbfmG40FLPaIlMM_xMi-6" value="street" style="ellipse;whiteSpace=wrap;html=1;align=center;labelBackgroundColor=none;" parent="1" vertex="1">
          <mxGeometry x="-842.49" y="870" width="70" height="20" as="geometry" />
        </mxCell>
        <mxCell id="jIbfmG40FLPaIlMM_xMi-7" value="" style="endArrow=none;html=1;rounded=0;labelBackgroundColor=none;fontColor=default;" parent="1" source="jIbfmG40FLPaIlMM_xMi-6" target="jIbfmG40FLPaIlMM_xMi-2" edge="1">
          <mxGeometry relative="1" as="geometry">
            <mxPoint x="-485" y="1282.76" as="sourcePoint" />
            <mxPoint x="-325" y="1282.76" as="targetPoint" />
            <Array as="points" />
          </mxGeometry>
        </mxCell>
        <mxCell id="jIbfmG40FLPaIlMM_xMi-8" value="" style="endArrow=none;html=1;rounded=0;labelBackgroundColor=none;fontColor=default;" parent="1" source="jIbfmG40FLPaIlMM_xMi-9" target="jIbfmG40FLPaIlMM_xMi-2" edge="1">
          <mxGeometry relative="1" as="geometry">
            <mxPoint x="-1105.02" y="972.5" as="sourcePoint" />
            <mxPoint x="-325" y="1282.76" as="targetPoint" />
          </mxGeometry>
        </mxCell>
        <mxCell id="jIbfmG40FLPaIlMM_xMi-9" value="City" style="ellipse;whiteSpace=wrap;html=1;align=center;labelBackgroundColor=none;" parent="1" vertex="1">
          <mxGeometry x="-912.49" y="870" width="60" height="20" as="geometry" />
        </mxCell>
      </root>
    </mxGraphModel>
  </diagram>
</mxfile>
